<svg id="Layer_1" data-name="Layer 1" xmlns="http://www.w3.org/2000/svg" viewBox="0 0 320 180"><defs><style>.cls-1{fill:#333;}.cls-2{fill:#e0e0e0;}.cls-3{fill:#fff;}</style></defs><rect class="cls-1" width="320" height="180"/><rect class="cls-2" x="3" y="3" width="314" height="174"/><path class="cls-1" d="M214.71,106.27v-56a3.53,3.53,0,0,0-3.56-3.56H105.76a3.54,3.54,0,0,0-3.56,3.56V133.4a3.54,3.54,0,0,0,3.56,3.57h78.12a24.76,24.76,0,1,0,30.84-30.7Z"/><path class="cls-3" d="M182.92,130H109.19V53.78h98.4v51.53A24.74,24.74,0,0,0,182.92,130Z"/><path class="cls-3" d="M217.59,133.54h-6.44V140a3.54,3.54,0,0,1-3.56,3.57A3.45,3.45,0,0,1,204,140v-6.44h-6.45A3.54,3.54,0,0,1,194,130a3.45,3.45,0,0,1,3.56-3.56H204V120a3.54,3.54,0,0,1,3.56-3.57,3.46,3.46,0,0,1,3.56,3.57v6.44h6.44a3.56,3.56,0,1,1,0,7.12Z"/><path class="cls-1" d="M173.46,91.47l-5.75,5.62a2.15,2.15,0,0,1-3.29-.28L150.17,77.9a2.19,2.19,0,0,0-3.57.14L123.44,114.9a2.23,2.23,0,0,0,1.92,3.43h52.9a32.45,32.45,0,0,1,8.63-12.2L176.75,91.88a2.27,2.27,0,0,0-3.29-.41Z"/><path class="cls-1" d="M188.13,74.2A8.09,8.09,0,1,1,180,66.12a8.09,8.09,0,0,1,8.09,8.08"/></svg>