<svg id="Layer_1" data-name="Layer 1" xmlns="http://www.w3.org/2000/svg" viewBox="0 0 320 180"><defs><style>.cls-1{fill:#ccc;}.cls-2{fill:#fff;}.cls-3{fill:none;stroke:#ccc;stroke-linecap:round;stroke-linejoin:round;stroke-width:3px;}</style></defs><rect class="cls-1" width="320" height="180"/><rect class="cls-2" x="3" y="3" width="314" height="174"/><path class="cls-3" d="M129.6,45.74c24.7-5.12,51-10.67,75.71-15.79,1.17,5.41,2.19,10.38,3.22,15.79m-109,65.77c-4.09-19.73-7.75-37.27-11.84-57,3.07-.59,8.77-1.9,11.84-2.49M165.41,138c-19.88,4.1-38,7.9-57.88,12L105,138M217,85.64c2.49,11.84,5.7,28.06,8.19,39.9-2.92.59-5.41,1.17-8.33,1.75M99.49,138H217V45.74m-8.33,0H99.49v83.75"/><path class="cls-3" d="M118.93,115c6.43-17.4,11.4-30.55,18-47.94,5.7,7.16,11,13.59,16.51,20.75"/><path class="cls-3" d="M157.22,92.36c2.63,3.36,5.41,6.73,8.19,10.09,4.68-3.51,9.35-7,14.18-10.67,7,10.67,14.17,21.19,21.19,31.86h-83.9"/><path class="cls-3" d="M196.39,62a10.31,10.31,0,0,1,4.39,8.62,10.67,10.67,0,0,1-20.46,4.1"/><path class="cls-3" d="M179.73,68.83a10.46,10.46,0,0,1,10.53-8.92,4,4,0,0,1,1.31.15"/><line class="cls-3" x1="236.74" y1="30.1" x2="83.26" y2="149.95"/></svg>